<mxfile host="drawio-plugin" modified="2024-12-16T05:22:02.602Z" agent="5.0 (Windows NT 6.2; Win64; x64) AppleWebKit/537.36 (KHTML, like Gecko) Chrome/104.0.5112.102 Safari/537.36" etag="DpFxsN6cVL1fgCcjB8zy" version="20.5.3" type="embed"><diagram id="23iRSUPoRavnBvh4doch" name="Page-1"><mxGraphModel dx="1881" dy="557" grid="1" gridSize="10" guides="1" tooltips="1" connect="1" arrows="1" fold="1" page="1" pageScale="1" pageWidth="827" pageHeight="1169" math="0" shadow="0"><root><mxCell id="0"/><mxCell id="1" parent="0"/><mxCell id="2" value="" style="rounded=0;whiteSpace=wrap;html=1;" vertex="1" parent="1"><mxGeometry x="110" y="110" width="660" height="460" as="geometry"/></mxCell><mxCell id="3" value="&lt;font style=&quot;font-size: 24px;&quot;&gt;Login&lt;/font&gt;" style="text;html=1;strokeColor=none;fillColor=none;align=center;verticalAlign=middle;whiteSpace=wrap;rounded=0;" vertex="1" parent="1"><mxGeometry x="220" y="200" width="110" height="50" as="geometry"/></mxCell><mxCell id="4" value="用户名" style="rounded=1;whiteSpace=wrap;html=1;fontSize=24;align=left;" vertex="1" parent="1"><mxGeometry x="330" y="270" width="230" height="40" as="geometry"/></mxCell><mxCell id="5" value="密码" style="rounded=1;whiteSpace=wrap;html=1;fontSize=24;align=left;" vertex="1" parent="1"><mxGeometry x="330" y="350" width="230" height="40" as="geometry"/></mxCell><mxCell id="6" value="Sign&amp;nbsp; in" style="rounded=1;whiteSpace=wrap;html=1;fontSize=24;" vertex="1" parent="1"><mxGeometry x="330" y="420" width="100" height="50" as="geometry"/></mxCell><mxCell id="7" value="Reset" style="rounded=1;whiteSpace=wrap;html=1;fontSize=24;" vertex="1" parent="1"><mxGeometry x="460" y="420" width="100" height="50" as="geometry"/></mxCell><mxCell id="8" value="" style="rounded=0;whiteSpace=wrap;html=1;fontSize=24;" vertex="1" parent="1"><mxGeometry x="-60" y="639" width="860" height="530" as="geometry"/></mxCell><mxCell id="9" value="&lt;font style=&quot;font-size: 18px;&quot;&gt;Datasources&lt;/font&gt;" style="rounded=0;whiteSpace=wrap;html=1;fontSize=24;" vertex="1" parent="1"><mxGeometry x="-30" y="670" width="120" height="40" as="geometry"/></mxCell><mxCell id="10" value="&lt;font style=&quot;font-size: 18px;&quot;&gt;Clusters&lt;/font&gt;" style="rounded=0;whiteSpace=wrap;html=1;fontSize=24;" vertex="1" parent="1"><mxGeometry x="110" y="670" width="120" height="40" as="geometry"/></mxCell><mxCell id="11" value="&lt;font style=&quot;font-size: 18px;&quot;&gt;SQL&lt;/font&gt;" style="rounded=0;whiteSpace=wrap;html=1;fontSize=24;" vertex="1" parent="1"><mxGeometry x="260" y="670" width="120" height="40" as="geometry"/></mxCell><mxCell id="12" value="&lt;font style=&quot;font-size: 18px;&quot;&gt;SQL&lt;/font&gt;" style="rounded=0;whiteSpace=wrap;html=1;fontSize=24;" vertex="1" parent="1"><mxGeometry x="270" y="680" width="120" height="40" as="geometry"/></mxCell></root></mxGraphModel></diagram></mxfile>